#!OML:ASF X:\für Bonn\!DataBase\2005_08_12_Daniel\c3d\Daniel.ASF
:FULLY-SPECIFIED
:DEGREES
19
root -0.416006 18.5036 0.506656 307.684 83.678 312.239
lowerback 10.1834 -1.16388 5.27159
upperback -1.04191 -0.877646 0.0819081
thorax -6.91213 -0.623609 -2.74438
lowerneck -2.89523 1.8633 -4.53433
upperneck 0.463177 2.66517 -0.498856
head 0.566379 1.32418 0.629575
rclavicle -5.24295e-015 -5.96354e-015
rhumerus -38.1573 32.8658 -107.991
rradius 92.0559
rwrist 5.51685
rhand -32.2175 31.3448
rfingers 7.12502
rthumb -5.45872 1.43508
lclavicle -5.24295e-015 -5.96354e-015
lhumerus 143.358 199.756 277.502
lradius 105.42
lwrist 17.4254
lhand -11.1993 -13.7944
lfingers 7.12502
lthumb 14.8285 15.6551
rfemur 3.10174 3.75072 25.5496
rtibia 32.296
rfoot 11.4984 -0.895227
rtoes -12.7867
lfemur -2.09745 -1.85525 -14.0191
ltibia 48.1068
lfoot 1.27042 -1.99084
ltoes -16.1543
20
root -0.118643 18.7707 0.526215 307.117 83.7906 311.327
lowerback 8.98772 -1.17744 5.22825
upperback -1.56261 -0.963057 0.0941145
thorax -6.79124 -0.672817 -2.70217
lowerneck -2.04314 1.95562 -4.64476
upperneck 1.45655 2.76345 -0.502505
head 0.727729 1.35641 0.646192
rclavicle 5.69021e-015 -5.1684e-015
rhumerus -38.3924 34.0127 -107.264
rradius 94.4661
rwrist 5.41224
rhand -30.7721 31.2475
rfingers 7.12502
rthumb -4.06308 1.30649
lclavicle 5.69021e-015 -5.1684e-015
lhumerus 144.135 200.41 276.135
lradius 106.913
lwrist 17.6684
lhand -10.9177 -14.4989
lfingers 7.12502
lthumb 15.0998 14.9303
rfemur 4.05194 4.12085 25.7359
rtibia 30.2548
rfoot 16.511 -2.81448
rtoes -12.7555
lfemur -2.03229 -1.92299 -14.1217
ltibia 47.6873
lfoot 5.90626 -2.04827
ltoes -14.4108
21
root 0.170778 19.024 0.544068 306.986 83.8883 310.669
lowerback 7.78522 -1.18166 5.17533
upperback -2.21186 -1.02614 0.133967
thorax -6.79758 -0.713415 -2.6301
lowerneck -1.10933 2.05224 -4.79129
upperneck 2.54318 2.87319 -0.540699
head 0.904614 1.39473 0.657826
rclavicle 1.74185e-014 1.15295e-014
rhumerus -38.7165 35.0192 -106.541
rradius 96.7772
rwrist 5.12839
rhand -29.3609 30.8533
rfingers 7.12502
rthumb -2.70026 0.890678
lclavicle 1.74185e-014 1.15295e-014
lhumerus 144.82 200.923 274.827
lradius 108.254
lwrist 18.0243
lhand -10.6906 -15.0372
lfingers 7.12502
lthumb 15.3185 14.3754
rfemur 4.33067 4.54236 25.9261
rtibia 29.0626
rfoot 20.8222 -4.39767
rtoes -12.7139
lfemur -2.41082 -1.96065 -14.2462
ltibia 47.7435
lfoot 9.781 -2.08107
ltoes -12.6121
22
root 0.452158 19.2574 0.558408 306.726 83.9522 309.742
lowerback 6.39798 -1.17702 5.19724
upperback -2.76069 -1.07887 0.169298
thorax -6.58899 -0.743097 -2.61203
lowerneck -0.226777 2.13492 -4.86325
upperneck 3.47752 2.9695 -0.632876
head 1.04537 1.43087 0.638866
rclavicle 1.87603e-014 -9.14409e-015
rhumerus -38.6624 35.815 -105.644
rradius 98.9589
rwrist 4.73965
rhand -27.9075 30.2417
rfingers 7.12502
rthumb -1.29657 0.265886
lclavicle 1.87603e-014 -9.14409e-015
lhumerus 145.827 201.372 273.307
lradius 109.547
lwrist 18.4371
lhand -10.3765 -15.2574
lfingers 7.12502
lthumb 15.6211 14.1319
rfemur 4.07575 4.88714 26.1353
rtibia 28.7565
rfoot 24.132 -5.50046
rtoes -12.5476
lfemur -3.15286 -1.91989 -14.3203
ltibia 48.2363
lfoot 12.8089 -2.16495
ltoes -11.1101
23
root 0.726057 19.4683 0.572252 306.771 84.0174 309.201
lowerback 4.90357 -1.1665 5.23045
upperback -2.98239 -1.14281 0.151766
thorax -5.97219 -0.764415 -2.66207
lowerneck 0.289047 2.19937 -4.88243
upperneck 4.28314 3.06177 -0.739597
head 1.21004 1.46668 0.610758
rclavicle 8.3738e-015 7.15625e-015
rhumerus -37.8024 36.5911 -104.361
rradius 100.972
rwrist 4.16694
rhand -26.6126 29.3783
rfingers 7.12502
rthumb -0.0458914 -0.601486
lclavicle 8.3738e-015 7.15625e-015
lhumerus 147.483 201.743 271.482
lradius 110.821
lwrist 18.9633
lhand -10.0655 -15.0456
lfingers 7.12502
lthumb 15.9206 14.32
rfemur 3.51027 5.25291 26.3369
rtibia 29.2945
rfoot 26.4182 -6.24465
rtoes -11.4804
lfemur -3.92695 -1.70694 -14.3927
ltibia 49.0801
lfoot 14.7298 -2.53233
ltoes -10.5053
24
root 0.986746 19.6492 0.585347 306.938 84.0784 309.127
lowerback 3.87282 -1.1568 5.21122
upperback -3.07683 -1.18842 0.13547
thorax -5.48489 -0.775587 -2.67953
lowerneck 0.890631 2.26473 -4.93604
upperneck 5.00171 3.15053 -0.806502
head 1.33287 1.50367 0.598177
rclavicle 6.41081e-015 2.18663e-014
rhumerus -36.5728 37.2346 -102.806
rradius 102.823
rwrist 3.42217
rhand -25.4052 28.3712
rfingers 7.12502
rthumb 1.1202 -1.6056
lclavicle 6.41081e-015 2.18663e-014
lhumerus 149.243 201.98 269.626
lradius 112.034
lwrist 19.4598
lhand -9.7827 -14.5157
lfingers 7.12502
lthumb 16.1929 14.8279
rfemur 2.96784 5.46077 26.513
rtibia 30.484
rfoot 27.7446 -6.52134
rtoes -9.8204
lfemur -4.48712 -1.36724 -14.475
ltibia 50.192
lfoot 15.8677 -3.18413
ltoes -9.71243
25
root 1.21749 19.8048 0.596971 307.119 84.1319 309.413
lowerback 3.50931 -1.17678 5.14538
upperback -3.0769 -1.24061 0.12809
thorax -5.27975 -0.794022 -2.65195
lowerneck 1.44613 2.3334 -4.99647
upperneck 5.69695 3.24855 -0.872862
head 1.45689 1.54603 0.587296
rclavicle 9.93923e-016 7.55382e-015
rhumerus -34.9668 37.7835 -101.018
rradius 104.552
rwrist 2.38717
rhand -24.2149 27.2747
rfingers 7.12502
rthumb 2.26979 -2.69302
lclavicle 9.93923e-016 7.55382e-015
lhumerus 151.102 202.071 267.693
lradius 113.132
lwrist 20.0444
lhand -9.66023 -13.8328
lfingers 7.12502
lthumb 16.3108 15.5012
rfemur 2.5169 5.5466 26.6749
rtibia 32.0383
rfoot 28.2972 -6.43221
rtoes -8.37392
lfemur -4.8653 -0.960948 -14.5939
ltibia 51.4824
lfoot 16.7238 -3.94394
ltoes -8.49578
26
root 1.43026 19.9473 0.609417 307.548 84.1946 310.126
lowerback 3.55624 -1.19462 5.02845
upperback -3.03714 -1.27191 0.105862
thorax -5.26441 -0.805016 -2.60655
lowerneck 2.03851 2.41679 -5.10937
upperneck 6.36157 3.36064 -0.84647
head 1.56342 1.59717 0.613005
rclavicle 2.03754e-015 1.98785e-015
rhumerus -33.2197 38.0887 -99.1453
rradius 106.271
rwrist 1.28772
rhand -23.117 26.2696
rfingers 7.12502
rthumb 3.3301 -3.68418
lclavicle 2.03754e-015 1.98785e-015
lhumerus 153.018 202.106 265.693
lradius 114.059
lwrist 20.6243
lhand -9.72878 -13.1583
lfingers 7.12502
lthumb 16.2448 16.1812
rfemur 2.13634 5.50574 26.7819
rtibia 33.6714
rfoot 28.4256 -6.15921
rtoes -7.37051
lfemur -5.17182 -0.516798 -14.7713
ltibia 52.8416
lfoot 17.4803 -4.74847
ltoes -8.18154
27
root 1.64058 20.0807 0.620511 307.764 84.2575 310.767
lowerback 3.84553 -1.22338 4.92664
upperback -2.94269 -1.30639 0.0761735
thorax -5.3309 -0.819702 -2.57332
lowerneck 2.55987 2.49418 -5.20628
upperneck 7.02978 3.46801 -0.785871
head 1.68393 1.64663 0.647999
rclavicle -5.2181e-015 -1.15295e-014
rhumerus -31.4179 38.1706 -97.2307
rradius 107.963
rwrist 0.0566683
rhand -21.9906 25.5156
rfingers 7.12502
rthumb 4.4178 -4.41834
lclavicle -5.2181e-015 -1.15295e-014
lhumerus 154.887 202.039 263.756
lradius 114.889
lwrist 21.2232
lhand -9.84023 -12.5424
lfingers 7.12502
lthumb 16.1375 16.8057
rfemur 1.95467 5.33474 26.8745
rtibia 35.1476
rfoot 28.2358 -5.85176
rtoes -7.21462
lfemur -5.38732 -0.0996025 -14.9733
ltibia 54.1852
lfoot 18.2091 -5.5491
ltoes -7.97457
28
root 1.85405 20.2121 0.631907 308.231 84.3055 311.782
lowerback 4.31255 -1.25071 4.79778
upperback -2.78334 -1.33363 0.0580797
thorax -5.42889 -0.82945 -2.51078
lowerneck 2.93248 2.57132 -5.27043
upperneck 7.77864 3.59165 -0.769622
head 1.85813 1.70246 0.667665
rclavicle -5.1684e-015 6.75868e-015
rhumerus -29.7576 38.0984 -95.3524
rradius 109.585
rwrist -1.11978
rhand -21.0759 25.0917
rfingers 7.12502
rthumb 5.30107 -4.82204
lclavicle -5.1684e-015 6.75868e-015
lhumerus 156.742 201.93 261.901
lradius 115.634
lwrist 21.7814
lhand -10.2177 -12.0796
lfingers 7.12502
lthumb 15.774 17.2977
rfemur 2.04705 5.08197 26.9221
rtibia 36.2868
rfoot 28.0864 -5.53927
rtoes -7.11281
lfemur -5.45136 0.316809 -15.1907
ltibia 55.406
lfoot 18.7942 -6.30879
ltoes -8.21415
29
root 2.07322 20.3486 0.642984 308.929 84.3581 313.109
lowerback 4.94531 -1.26134 4.65621
upperback -2.57006 -1.33494 0.0151978
thorax -5.56294 -0.826445 -2.4669
lowerneck 3.02825 2.62051 -5.2781
upperneck 8.6778 3.70193 -0.742875
head 2.1326 1.74896 0.688997
rclavicle 2.18663e-014 1.98785e-015
rhumerus -28.1012 37.7886 -93.4688
rradius 111.113
rwrist -2.16423
rhand -20.2957 24.9124
rfingers 7.12502
rthumb 6.05438 -4.9811
lclavicle 2.18663e-014 1.98785e-015
lhumerus 158.543 201.832 260.137
lradius 116.321
lwrist 22.3727
lhand -10.6909 -11.9654
lfingers 7.12502
lthumb 15.3182 17.4473
rfemur 2.34144 4.52876 26.8269
rtibia 37.0561
rfoot 28.2391 -4.87344
rtoes -7.44394
lfemur -5.34248 0.634252 -15.4521
ltibia 56.4108
lfoot 19.2856 -6.78753
ltoes -7.92477
30
root 2.29588 20.4848 0.65441 309.577 84.3958 314.437
lowerback 5.68393 -1.28988 4.49506
upperback -2.33139 -1.35616 0.00584165
thorax -5.73076 -0.831759 -2.37334
lowerneck 2.93563 2.68726 -5.31318
upperneck 9.69619 3.85437 -0.709897
head 2.48277 1.813 0.723653
rclavicle 1.61513e-014 -9.93923e-016
rhumerus -26.5105 37.4142 -91.6161
rradius 112.473
rwrist -2.99754
rhand -19.7199 24.9187
rfingers 7.12502
rthumb 6.61017 -4.95814
lclavicle 1.61513e-014 -9.93923e-016
lhumerus 160.166 201.671 258.521
lradius 116.996
lwrist 22.9393
lhand -11.1419 -12.1849
lfingers 7.12502
lthumb 14.8838 17.2605
rfemur 2.76772 3.80258 26.6906
rtibia 37.541
rfoot 28.6156 -4.32217
rtoes -7.96624
lfemur -5.07088 0.940401 -15.6811
ltibia 57.151
lfoot 19.6425 -6.87004
ltoes -8.11835
31
root 2.51784 20.6138 0.664376 310.065 84.4346 315.646
lowerback 6.47314 -1.31262 4.37418
upperback -2.02615 -1.36858 -0.0352514
thorax -5.85826 -0.8327 -2.33621
lowerneck 2.86226 2.75059 -5.33347
upperneck 10.6239 3.99412 -0.626852
head 2.80422 1.87405 0.77126
rclavicle 1.39149e-015 -1.13307e-014
rhumerus -24.8884 36.8241 -89.8609
rradius 113.66
rwrist -3.59531
rhand -19.2876 24.9285
rfingers 7.12502
rthumb 7.02757 -4.9348
lclavicle 1.39149e-015 -1.13307e-014
lhumerus 161.745 201.571 256.949
lradius 117.63
lwrist 23.5793
lhand -11.5647 -12.7617
lfingers 7.12502
lthumb 14.4764 16.7133
rfemur 3.19623 3.02331 26.544
rtibia 37.871
rfoot 29.1645 -3.85402
rtoes -8.6793
lfemur -4.69817 1.2603 -15.894
ltibia 57.6151
lfoot 19.8298 -6.71912
ltoes -9.33967
32
root 2.73755 20.7304 0.674105 310.645 84.4449 316.95
lowerback 7.32205 -1.33175 4.25371
upperback -1.73475 -1.37239 -0.0638689
thorax -6.03291 -0.829603 -2.28609
lowerneck 3.03138 2.81284 -5.32035
upperneck 11.4694 4.12377 -0.599253
head 3.0602 1.93481 0.789768
rclavicle -1.49089e-015 -7.35503e-015
rhumerus -23.4106 36.1296 -88.2418
rradius 114.726
rwrist -3.92413
rhand -18.9699 24.8001
rfingers 7.12502
rthumb 7.33417 -5.05281
lclavicle -1.49089e-015 -7.35503e-015
lhumerus 163.096 201.503 255.576
lradius 118.26
lwrist 24.2826
lhand -11.8238 -13.5006
lfingers 7.12502
lthumb 14.2268 15.9921
rfemur 3.56339 2.23635 26.3834
rtibia 38.0989
rfoot 29.6631 -3.42662
rtoes -9.39378
lfemur -4.26248 1.72621 -16.0202
ltibia 57.8314
lfoot 19.9397 -6.19751
ltoes -9.83252
33
root 2.95383 20.8304 0.683375 311.361 84.4698 318.357
lowerback 8.1452 -1.34898 4.11554
upperback -1.41393 -1.3777 -0.0909626
thorax -6.16048 -0.824633 -2.22518
lowerneck 3.22123 2.88189 -5.35012
upperneck 12.2499 4.25764 -0.547228
head 3.292 1.99831 0.822659
rclavicle 1.03617e-014 -8.94531e-015
rhumerus -22.0626 35.3244 -86.7793
rradius 115.701
rwrist -3.90049
rhand -18.8521 24.4781
rfingers 7.12502
rthumb 7.44795 -5.37077
lclavicle 1.03617e-014 -8.94531e-015
lhumerus 164.328 201.524 254.312
lradius 118.826
lwrist 25.0361
lhand -12.0227 -14.3346
lfingers 7.12502
lthumb 14.0351 15.1716
rfemur 3.85172 1.46674 26.1922
rtibia 38.2512
rfoot 29.9241 -3.06763
rtoes -10.4097
lfemur -3.81652 2.25315 -16.1236
ltibia 57.8162
lfoot 19.8528 -5.7287
ltoes -10.5721
